<?xml version="1.0" encoding="UTF-8"?>
<svg id="Layer_2" data-name="Layer 2" xmlns="http://www.w3.org/2000/svg" viewBox="0 0 96.49 29.75">
  <defs>
    <style>
      .cls-1 {
        fill: #000;
        stroke-width: 0px;
      }
    </style>
  </defs>
  <g id="pokeball_chart" data-name="pokeball chart">
    <path class="cls-1" d="M9.37,3.98h1.41c3.26,0,5.55,1.88,6.88,5.64l.18,1.59c0,2.16-1.06,4.22-3.18,6.19,3.41,1.43,5.12,3.2,5.12,5.3v1.06c0,2.76-3,4.53-9,5.3-3.7.46-5.94.7-6.7.7-2.12,0-3.18-1.53-3.18-4.58-.6-3.71-.89-7.18-.89-10.41v-.53C0,9.33,2.29,6.03,6.89,4.33c.89-.23,1.71-.35,2.48-.35ZM4.6,15.45c.08.83.2,1.24.35,1.24,5.42-1.67,8.13-3.49,8.13-5.48,0-1.5-1.06-2.39-3.18-2.65-1.93,0-3.46.94-4.6,2.83-.35.64-.59,1.99-.7,4.06ZM5.13,21.81c.11,2.01.34,3.01.7,3.01,6-.54,9-1.12,9-1.77-.82-1.06-2.35-1.59-4.58-1.59h-1.06c-2.11,0-3.46.12-4.06.35Z"/>
    <path class="cls-1" d="M31,3.18l1.01.09c3.74.33,6.14,2.45,7.21,6.35.05.51.05,1,0,1.47v.15c-.28,3.01-2.27,5.18-6,6.51v.14c2.9,2.45,4.3,4.24,4.2,5.36-.37,1.14-.95,1.67-1.75,1.6l-.59-.05c-.52-.05-1.79-1.18-3.8-3.41-2.25-1.96-4.5-3.03-6.75-3.23-.03.33.09,1.81.35,4.43l-.02.29c-.43,1.24-1.11,1.81-2.06,1.73-1.28-.11-1.98-1.59-2.1-4.43-.22-3.12-.27-5.37-.14-6.76.48-5.46,3.22-8.83,8.23-10.12.92-.11,1.66-.14,2.21-.09ZM24.55,13.02c1.23.7,2.66,1.11,4.28,1.26,4.11-.08,6.26-1.21,6.45-3.39v-.15c.17-1.79-1.09-2.97-3.77-3.56l-.73-.06c-2.49-.22-4.41,1.08-5.76,3.89-.3,1.1-.46,1.78-.48,2.02Z"/>
    <path class="cls-1" d="M48.5,11.98l.4.04c2.93.26,4.89,1.82,5.9,4.68.12.69.15,1.32.1,1.9l-.02.26c-.22,2.52-1.76,4.76-4.62,6.71-2.1.89-3.83,1.28-5.2,1.15l-.66-.06c-2.29-.2-4.09-1.61-5.41-4.23-.29-.86-.4-1.63-.34-2.32l.09-1.06c.31-3.47,2.61-5.74,6.92-6.78,1.07-.26,2.02-.35,2.85-.28ZM42.34,19.36l-.07.8c-.12,1.39.82,2.37,2.84,2.93,1.89.17,3.61-.62,5.17-2.37.62-.89.96-1.71,1.02-2.46.11-1.24-.8-2.13-2.72-2.66h-.14c-3.87.18-5.91,1.43-6.11,3.75Z"/>
    <path class="cls-1" d="M68.27,6.27l1.52.13c1.92.5,2.82,1.35,2.71,2.55l-.03.3c-.09,1.02-.81,1.58-2.16,1.67l-1.8-.62c-2.45-.22-5.02,1.51-7.7,5.18-.53,1.29-.83,2.34-.9,3.16v.16c-.21,2.21.55,3.56,2.26,4.05,0,.1.39.25,1.19.42,1.93.17,4.41-.54,7.44-2.12.19-.09.4-.12.63-.1l.46.04c1.2.39,1.76,1.05,1.67,2-.14,1.57-2.47,2.91-6.99,4.01-1.24.2-2.38.25-3.4.16h-.16c-3.31-.31-5.49-1.79-6.55-4.45-.59-1.48-.82-2.99-.69-4.53.41-4.62,3.31-8.38,8.72-11.27,1.44-.6,2.69-.85,3.77-.75Z"/>
    <path class="cls-1" d="M80.81.01l.22.02c1.96.17,2.77,2.16,2.44,5.96.04,1.26-.07,3.29-.32,6.08l-.18,2.08c-.02.26.17.41.6.45,3.57-.91,6.6-2.36,9.07-4.36.75-.2,1.32-.28,1.71-.24,1.51.57,2.23,1.34,2.14,2.3l-.08.94c-.13,1.47-2.47,3.11-7.02,4.92l-.02.2c2.67,1.25,4.75,3.28,6.25,6.08.32,1.22.45,2.06.41,2.53-.56,1.48-1.46,2.16-2.73,2.05l-.2-.02c-1.64-.14-2.86-1.52-3.67-4.14-2.23-2.11-4.74-3.28-7.54-3.53-1.12,4.99-2.53,7.41-4.24,7.26l-.43.16c-1.94-.51-2.85-1.48-2.73-2.91,1.72-5.1,2.74-9.41,3.05-12.92.26-3,.36-6.5.29-10.49.53-1.74,1.52-2.55,2.98-2.42Z"/>
  </g>
</svg>