<?xml version="1.0" encoding="UTF-8"?>
<svg id="Layer_2" data-name="Layer 2" xmlns="http://www.w3.org/2000/svg" viewBox="0 0 242.74 122.62">
  <defs>
    <style>
      .cls-1 {
        fill: #f9c92f;
        stroke: #000;
        stroke-miterlimit: 10;
        stroke-width: 10px;
      }

      .cls-2 {
        fill: #000;
        stroke-width: 0px;
      }
    </style>
  </defs>
  <g id="pokeball_chart" data-name="pokeball chart">
    <g id="Blueachu">
      <rect class="cls-1" x="71.44" y="-53.4" width="99.87" height="229.42" rx="23.09" ry="23.09" transform="translate(51.68 178.07) rotate(-85.97)"/>
    </g>
    <g>
      <path class="cls-2" d="M64.28,32.44c2.14-.6,4.04-.83,5.7-.69.18.02.59.06,1.24.15.65.08,1.15.14,1.51.17,2.42.26,4.08.51,4.96.73.88.22,1.91.68,3.11,1.38,2.85,1.67,4.18,3.67,3.98,5.98-.05.65-.44,2.08-1.16,4.29-.72,2.21-1.3,3.72-1.72,4.52-.15.35-.17.57-.06.67.11.1.46.17,1.06.22.89.07,2.04.48,3.44,1.23,1.4.75,2.51,1.54,3.34,2.38.83.73,1.6,1.99,2.28,3.78.54,1.42.77,2.6.69,3.55-.06.77-.15,1.45-.26,2.04-.34,1.94-.94,3.52-1.78,4.74-.85,1.21-2.21,2.34-4.09,3.38-1.64,1-3.58,2.09-5.83,3.28-3.89,2.25-7.52,3.53-10.9,3.84-1.87.2-3.77.46-5.71.78-1.76.33-3.03.47-3.8.4-.53-.04-1.06-.24-1.56-.58-.96-.62-1.7-1.51-2.2-2.69-.44-1.11-.47-3.98-.09-8.61.31-3.68.61-6.94.91-9.78l.63-7.56c.51-6.11.64-9.44.39-10-.36-.69-.22-1.27.42-1.76.69-.48,1.01-.99.93-1.53,0-.06,0-.13-.03-.23-.02-.09-.03-.17-.03-.22.13-1.54,1.67-2.82,4.62-3.83ZM83.25,59.56c-.55-.58-1.13-.99-1.74-1.22-.61-.23-1.95-.49-4.01-.78-.53-.1-1.39-.21-2.57-.3-5.22-.44-8.16-.32-8.81.34-.19.16-.58,2.28-1.16,6.36-.35,2.72-.53,4.17-.54,4.35-.09,1.13.09,1.71.57,1.75.89.02,2.37-.13,4.43-.44,2.06-.31,3.46-.61,4.2-.9,1.11-.44,3.08-1.62,5.9-3.54,2.82-1.92,4.34-3.1,4.55-3.56.27-.39,0-1.07-.81-2.04ZM75.58,40.91c-.05-.12-1.31-.35-3.8-.68-.24-.02-.53-.06-.89-.12-.35-.06-.59-.09-.71-.1-1.3-.11-2.15.13-2.53.73-.38.59-.66,2.02-.85,4.28l-.29,3.47,4.08-1.63c1.97-.73,3.15-1.26,3.54-1.58.39-.33.74-1.01,1.07-2.06.41-1.34.53-2.11.37-2.3Z"/>
      <path class="cls-2" d="M107.36,35.94c.74-.3,1.35-.42,1.82-.38.29.02.82.22,1.56.58.86.49,1.39,1.1,1.6,1.83.21.74.21,2.26.02,4.57-.05.59-.33,3.26-.85,7.99-.46,3.43-.8,6.36-1,8.79-.2,2.43-.3,5.02-.29,7.77.01,2.69.07,4.32.17,4.9.1.58.48,1.19,1.15,1.84,1.16,1.17,2.27,1.8,3.34,1.89,1.19.1,2.8-.63,4.84-2.19,2.04-1.56,4.17-4.71,6.39-9.46,2.21-4.75,4.05-10.1,5.51-16.08.88-3.39,1.49-5.34,1.83-5.85.77-1.37,1.96-1.99,3.56-1.85,1.07.09,1.98.58,2.75,1.48.81.96,1.16,2.22,1.03,3.76-.03.36-.24,1.47-.64,3.35-1.65,6.91-3.91,13.34-6.76,19.28-2.86,5.95-5.59,9.92-8.21,11.91-1.66,1.24-3.57,2.33-5.74,3.28-2.17.95-3.73,1.39-4.68,1.31-.89-.07-2.44-.71-4.64-1.91-2.2-1.2-3.88-2.32-5.05-3.38-1.61-1.45-2.62-3.67-3.03-6.66-.41-2.99-.34-7.69.19-14.1.25-3.03.48-5.43.69-7.2.72-6.45,1.33-10.54,1.83-12.26.5-1.72,1.37-2.8,2.6-3.23Z"/>
      <path class="cls-2" d="M182.03,38.95c.56-.25,1.17-.44,1.84-.56.65.05,1.36.41,2.1,1.07.75.66,1.22,1.33,1.41,2,.17.73.26,1.16.25,1.28-.04.47-.37,1.17-.98,2.07-1.87,3.07-3.53,5.74-4.97,8.01-3.31,5.34-6.58,9.75-9.8,13.25-.53.61-.84,1.54-.95,2.79-.09,1.13-.18,4.26-.24,9.39,0,4.36-.09,7.52-.25,9.48-.15,1.78-.41,2.98-.79,3.61-.38.63-1.06,1.11-2.05,1.44-.74.3-1.29.43-1.65.4-.41-.04-.85-.19-1.31-.47-.92-.49-1.55-1.15-1.9-1.95-.31-.62-.43-4.84-.38-12.67l.15-11.46-2.02-2.59c-.7-.89-1.29-1.75-1.76-2.57-.47-.82-.95-1.72-1.43-2.72-.49-1-.94-1.84-1.36-2.53-.47-.87-.93-1.94-1.39-3.21-.46-1.26-.98-2.83-1.54-4.7-.56-1.87-.94-3.11-1.12-3.72-.61-1.96-.9-3.12-.87-3.48.03-.36.22-.82.56-1.39.91-1.6,2.28-2.32,4.12-2.17.36.03.62.08.8.16,1.1.33,1.91,1.04,2.42,2.13.5,1.09,1.4,3.93,2.69,8.51.59,2.26,1.99,5.16,4.2,8.68l1.25,2.17,1.39-1.68c2.64-3.06,5.1-6.68,7.36-10.86,2.46-4.4,4.53-6.97,6.2-7.73Z"/>
    </g>
  </g>
</svg>