<?xml version="1.0" encoding="UTF-8"?>
<svg id="Layer_2" data-name="Layer 2" xmlns="http://www.w3.org/2000/svg" viewBox="0 0 188.24 188.24">
  <defs>
    <style>
      .cls-1 {
        fill: #000;
        stroke-miterlimit: 10;
        stroke-width: 10.58px;
      }

      .cls-1, .cls-2 {
        stroke: #fff;
      }

      .cls-2 {
        fill: #fff;
        fill-rule: evenodd;
        stroke-miterlimit: 10;
      }
    </style>
  </defs>
  <g id="pokeball_chart" data-name="pokeball chart">
    <g id="Layer_37" data-name="Layer 37">
      <rect class="cls-1" x="12.7" y="12.7" width="162.83" height="162.83" rx="23.97" ry="23.97" transform="translate(-12.14 174.28) rotate(-82.03)"/>
      <g>
        <path class="cls-2" d="M106.01,83.18c3.66-1.21,8.36-3.1,13.2-5.91.64,2.04.51,3.71-.16,4.99-.47.9-1.22,1.63-2.14,2.17-1,.58-2.2.93-3.48,1.03-2.43.19-5.13-.51-7.43-2.28M104.1,100.71l4.14,3.26c-9.97,3.85-13.85,13.09-18.17,22.02-1.64-9.78-2.77-19.74-11.26-26.24l4.89-1.96c.95-.21,1.65-1.01,1.74-1.97.84-8.82,3.76-12.35,7.3-14.33,1.27-.71,2.58-.97,3.81-.79,1.23.18,2.42.79,3.44,1.83,2.84,2.89,4.65,7.1,2.98,15.8-.18.95.27,1.91,1.12,2.38h0ZM102.1,42.05c5.2.89,10.3,2.65,14.56,5.28,2.95,1.82,5.63,4.05,7.98,6.59,1.06,1.15,1.91,2.23,2.85,3.47,2.92.52,7.68-2.13,10.12-4.89-5.04,10.75-22.6,21.79-34.16,25.32h0c-1.73-1.76-3.81-2.82-6-3.13-2.19-.31-4.48.12-6.64,1.32h-.01c-10.11-6.64-23.86-22.16-25.68-33.9,1.56,3.34,5.38,7.22,8.33,7.54,1.25-.93,2.37-1.73,3.71-2.53,2.97-1.78,6.16-3.17,9.51-4.08,4.83-1.32,10.21-1.58,15.45-.98M86.8,80.43c-3.17-2.19-7.15-5.32-11.01-9.38-1.19,1.77-1.53,3.42-1.25,4.83.2.99.71,1.91,1.45,2.68.8.84,1.85,1.51,3.05,1.97,2.28.87,5.07.95,7.77-.1"/>
        <path class="cls-2" d="M124.58,73.75c2.74-2.07,5.23-4.44,7.27-6.59l.63,1.75c1.98,5.95,2.63,11.68,1.74,17.9l-1.42,9.87-.68,5.12c-1.6,12.59-.7,25.69,3.79,38.2l-11.39-12.23-11.23,13.48-8.28-10.39-18.86,22.64-11.74-27.02-10.87,7.64-6.99-16.1-14.37,8.54c7.82-10.75,12.36-23.07,14.37-35.6l.79-5.11,1.41-9.87c.89-6.22,3.12-11.54,6.69-16.69l1.09-1.5c1.35,2.63,3.08,5.61,5.13,8.37l-.97,1.45c-1.89,2.81-2.85,6.11-2.18,9.48.43,2.17,1.51,4.13,3.03,5.73,1.48,1.55,3.32,2.72,5.32,3.48,1.3.5,2.65.82,4.02.97-.58,1.76-.98,3.6-1.26,5.51l-13.16,5.28,8.62,6.6c.69.53,1.33,1.11,1.93,1.75,6.74,8.05,8.44,29.25,10.2,39.74,4.63-9.57,12.22-29.44,20.95-35.27.75-.44,1.53-.82,2.34-1.13l10.13-3.91-11.15-8.76c.26-1.9.39-3.79.33-5.64,1.36.24,2.74.31,4.13.2,2.13-.17,4.23-.77,6.09-1.85,1.91-1.11,3.5-2.69,4.52-4.65,1.59-3.05,1.59-6.49.57-9.71l-.53-1.66h0v-.02Z"/>
      </g>
    </g>
  </g>
</svg>