<svg xmlns="http://www.w3.org/2000/svg" id="Layer_1" height="512" viewBox="0 0 479.993 479.993" width="512"><path d="m357.976 316.515-111.61 147.08c-3.196 4.215-9.546 4.211-12.74 0l-111.61-147.08c-2.6-3.42 1.28-7.97 5.06-5.95l109.16 58.16c2.32 1.24 5.11 1.25 7.44.04l109.24-58.2c3.78-2.02 7.661 2.53 5.06 5.95z" fill="#d1e7ff"></path><path d="m357.976 316.515s-111.642 147.122-111.658 147.143c-2.045 2.643-6.322 1.044-6.322-2.298v-88.488c0-1.321.729-2.535 1.895-3.157l111.025-59.15c3.78-2.02 7.661 2.53 5.06 5.95z" fill="#b9dcff"></path><path d="m364.077 206.785-120.36 63.25c-2.294 1.226-5.141 1.228-7.44 0l-120.36-63.25c-4.22-2.22-5.57-7.62-2.9-11.57l120.36-177.46c3.155-4.672 10.061-4.684 13.23-.01l120.37 177.47c2.669 3.95 1.32 9.35-2.9 11.57z" fill="#d1e7ff"></path><path d="m364.077 206.785s-120.383 63.262-120.395 63.269c-1.675.884-3.685-.425-3.685-2.318v-250.283c0-1.868 1.965-3.19 3.63-2.346 1.151.584 2.183 1.463 2.979 2.638l120.37 177.47c2.67 3.95 1.321 9.35-2.899 11.57z" fill="#b9dcff"></path><path d="m243.356 14.985c-1.6-.58-3.36.698-3.36 2.468v133.248c0 4.846-2.212 9.41-5.969 12.471-24.774 20.189-55.248 26.504-86.611 22.772-11.865-1.412-17.958-14.97-11.252-24.859l97.211-143.33c2.305-3.411 6.646-4.343 9.981-2.77z" fill="#e8f3ff"></path><path d="m225.031 370.421c-5.304 14.906-17.427 26.487-33.444 30.177-3.019.695-6.16-.523-8.033-2.99l-61.538-81.093c-2.6-3.42 1.28-7.97 5.06-5.95l94.152 50.17c3.478 1.853 5.124 5.975 3.803 9.686z" fill="#e8f3ff"></path><g fill="#2e58ff"><path d="m104.275 209.707 132 69.37c2.33 1.225 5.113 1.225 7.443 0l99.318-52.195c3.911-2.055 5.415-6.892 3.36-10.803-2.056-3.911-6.894-5.416-10.804-3.36l-95.597 50.239-120.354-63.25 112.355-165.664v186.822c0 4.418 3.582 8 8 8s8-3.582 8-8v-186.822l117.379 173.072c2.479 3.658 7.457 4.609 11.111 2.131 3.657-2.48 4.611-7.455 2.131-11.111-140.737-207.536-132.209-195.787-134.859-197.2-2.306-1.223-5.125-1.272-7.523 0-2.7 1.44 5.607-9.909-134.86 197.199-2.675 3.945-1.325 9.351 2.9 11.572z"></path><path d="m379.078 248.904c-2.056-3.911-6.894-5.416-10.804-3.36l-128.278 67.414-128.278-67.414c-3.91-2.053-8.747-.551-10.804 3.36-2.055 3.911-.551 8.748 3.36 10.803l132 69.37c2.33 1.225 5.113 1.225 7.443 0l132-69.37c3.912-2.055 5.416-6.892 3.361-10.803z"></path><path d="m365.235 294.935-129 68.731c-2.742 1.461-4.234 4.29-4.235 7.198v39.422c0 4.418 3.579 8 7.997 8s8-3.582 8-8v-34.757l92.595-49.334-100.596 132.566-100.594-132.567 52.996 28.236c3.897 2.077 8.744.601 10.822-3.299 2.077-3.899.601-8.745-3.299-10.822l-85.163-45.375c-3.315-1.767-7.415-.987-9.852 1.873s-2.555 7.031-.283 10.024l129 170c3.202 4.22 9.55 4.212 12.746 0l129-170c2.271-2.993 2.153-7.164-.283-10.024-2.435-2.859-6.533-3.64-9.851-1.872z"></path></g></svg>